<svg width="24" height="24" viewBox="0 0 24 24" fill="none" xmlns="http://www.w3.org/2000/svg">
<path fill-rule="evenodd" clip-rule="evenodd" d="M16.4369 3.34212C15.1672 2.49428 13.6413 2 12 2C7.58172 2 4 5.58172 4 10V18.2664L5.5 16.4664V10C5.5 6.41015 8.41015 3.5 12 3.5C13.2758 3.5 14.4658 3.86758 15.4698 4.50262L16.4369 3.34212ZM18.8669 5.8933L17.8347 7.13198C18.2607 7.99703 18.5 8.97057 18.5 10V18.5H15H13.5H10.5H9H8.36132L7.11132 20H9.17071C9.58254 21.1652 10.6938 22 12 22C13.3062 22 14.4175 21.1652 14.8293 20H18.5H20H20.5C20.9142 20 21.25 19.6642 21.25 19.25C21.25 18.8358 20.9142 18.5 20.5 18.5H20V10C20 8.49859 19.5864 7.09378 18.8669 5.8933ZM12 20.5C11.5558 20.5 11.1566 20.3069 10.8819 20H13.1181C12.8434 20.3069 12.4443 20.5 12 20.5Z" fill="#1A1E27"/>
<path d="M19 3L4 21" stroke="black" stroke-width="1.5" stroke-linecap="round" stroke-linejoin="round"/>
</svg>
