<svg width="24" height="24" viewBox="0 0 24 24" fill="none" xmlns="http://www.w3.org/2000/svg">
<path d="M16.6559 9.43413C16.5959 9.47034 15.167 10.2345 15.167 11.9289C15.2343 13.8612 16.9702 14.5389 17 14.5389C16.9702 14.5751 16.7379 15.462 16.0498 16.3917C15.5037 17.1926 14.8976 18 13.9772 18C13.1017 18 12.7874 17.4662 11.7772 17.4662C10.6923 17.4662 10.3853 18 9.55473 18C8.63432 18 7.9833 17.1493 7.40743 16.356C6.65929 15.3176 6.0234 13.6881 6.00095 12.1236C5.98582 11.2945 6.15077 10.4795 6.56949 9.7873C7.16049 8.8209 8.21559 8.16488 9.36782 8.14325C10.2506 8.11456 11.0364 8.72732 11.5751 8.72732C12.0915 8.72732 13.0568 8.14325 14.149 8.14325C14.6204 8.14372 15.8775 8.28057 16.6559 9.43413ZM11.5005 7.97772C11.3433 7.22059 11.7772 6.46346 12.1813 5.9805C12.6976 5.39643 13.5131 5 14.2163 5C14.2612 5.75713 13.9767 6.49967 13.4682 7.04048C13.0119 7.62455 12.2262 8.06425 11.5005 7.97772Z" fill="#1A1E27"/>
</svg>
