<svg width="24" height="24" viewBox="0 0 24 24" fill="none" xmlns="http://www.w3.org/2000/svg">
<path d="M3.0303 19.1201L2.29037 19.2426L3.0303 19.1201ZM10.0583 14.6431L10.4743 14.019H10.4743L10.0583 14.6431ZM10.6311 15.0249L10.215 15.649H10.215L10.6311 15.0249ZM13.2847 14.9098L13.7532 15.4954V15.4954L13.2847 14.9098ZM16.2639 12.5264L15.7953 11.9408L16.2639 12.5264ZM18.8882 12.392L18.4816 13.0222L18.8882 12.392ZM7.32858 14.8219L6.8347 14.2575C6.82217 14.2684 6.81002 14.2798 6.79825 14.2916L7.32858 14.8219ZM19.1325 12.5964L18.6022 13.1268L18.6022 13.1268L19.1325 12.5964ZM5.25 3.75H18.75V2.25H5.25V3.75ZM18.75 20.25H5.25V21.75H18.75V20.25ZM3.75 18.75V5.25H2.25V18.75H3.75ZM20.25 18.75C20.25 19.5784 19.5784 20.25 18.75 20.25V21.75C20.4069 21.75 21.75 20.4069 21.75 18.75H20.25ZM18.75 3.75C19.5784 3.75 20.25 4.42157 20.25 5.25H21.75C21.75 3.59315 20.4069 2.25 18.75 2.25V3.75ZM5.25 2.25C3.59315 2.25 2.25 3.59315 2.25 5.25H3.75C3.75 4.42157 4.42157 3.75 5.25 3.75V2.25ZM5.25 20.25C4.50636 20.25 3.88782 19.7081 3.77023 18.9977L2.29037 19.2426C2.52583 20.6652 3.76051 21.75 5.25 21.75V20.25ZM3.77023 18.9977C3.75698 18.9176 3.75 18.8349 3.75 18.75H2.25C2.25 18.9173 2.26376 19.0819 2.29037 19.2426L3.77023 18.9977ZM20.25 5.25V14.4639H21.75V5.25H20.25ZM20.25 14.4639V18.75H21.75V14.4639H20.25ZM10.125 8.625C10.125 9.45343 9.45343 10.125 8.625 10.125V11.625C10.2819 11.625 11.625 10.2819 11.625 8.625H10.125ZM8.625 10.125C7.79657 10.125 7.125 9.45343 7.125 8.625H5.625C5.625 10.2819 6.96815 11.625 8.625 11.625V10.125ZM7.125 8.625C7.125 7.79657 7.79657 7.125 8.625 7.125V5.625C6.96815 5.625 5.625 6.96815 5.625 8.625H7.125ZM8.625 7.125C9.45343 7.125 10.125 7.79657 10.125 8.625H11.625C11.625 6.96815 10.2819 5.625 8.625 5.625V7.125ZM9.64226 15.2671L10.215 15.649L11.0471 14.4009L10.4743 14.019L9.64226 15.2671ZM13.7532 15.4954L16.7324 13.1121L15.7953 11.9408L12.8162 14.3241L13.7532 15.4954ZM16.7324 13.1121C17.2385 12.7072 17.9438 12.6753 18.4816 13.0222L19.2947 11.7617C18.2181 11.0672 16.8079 11.1307 15.7953 11.9408L16.7324 13.1121ZM10.215 15.649C11.3021 16.3736 12.7331 16.3115 13.7532 15.4954L12.8162 14.3241C12.3061 14.7322 11.5906 14.7632 11.0471 14.4009L10.215 15.649ZM7.82246 15.3863C8.33248 14.94 9.07838 14.8912 9.64226 15.2671L10.4743 14.019C9.34655 13.2672 7.85474 13.3649 6.8347 14.2575L7.82246 15.3863ZM6.79825 14.2916L2.49997 18.5898L3.56063 19.6505L7.85891 15.3522L6.79825 14.2916ZM18.6022 13.1268L20.4697 14.9942L21.5303 13.9335L19.6628 12.0661L18.6022 13.1268ZM18.4816 13.0222C18.5068 13.0385 18.5434 13.0679 18.6022 13.1268L19.6628 12.0661C19.5711 11.9744 19.4484 11.8609 19.2947 11.7617L18.4816 13.0222Z" fill="#8E95A3"/>
</svg>
