<svg width="24" height="25" viewBox="0 0 24 25" fill="none" xmlns="http://www.w3.org/2000/svg">
<path d="M11.5536 2.76502L8.69797 8.95719L1.9363 9.76197C1.84205 9.76977 1.75226 9.80572 1.67875 9.86523C1.60523 9.92474 1.55148 10.0051 1.52421 10.0957C1.49478 10.1849 1.49213 10.2806 1.51655 10.3712C1.54096 10.4619 1.59127 10.5437 1.6615 10.606L6.65668 15.2282L5.33175 21.911C5.31298 22.003 5.32155 22.0986 5.35643 22.1858C5.39131 22.273 5.45116 22.348 5.52822 22.4017C5.61076 22.4628 5.70992 22.4972 5.81261 22.4999C5.89627 22.5015 5.97841 22.4774 6.04812 22.4312L11.9952 19.1045V2.50004C11.9043 2.49894 11.8149 2.52297 11.7369 2.56976C11.6589 2.61654 11.5955 2.68427 11.5536 2.76502Z" fill="#FFD573"/>
<path d="M22.471 10.0959C22.4437 10.0053 22.39 9.92494 22.3164 9.86543C22.2429 9.80592 22.1531 9.76998 22.0589 9.76217L15.2975 8.95739L12.4416 2.76522C12.3993 2.68556 12.3354 2.61939 12.2573 2.57427C12.1792 2.52915 12.0901 2.5069 12 2.51006V19.085L17.9471 22.4019C18.0237 22.4542 18.1142 22.4824 18.207 22.4824C18.2998 22.4824 18.3906 22.4542 18.4672 22.4019C18.5443 22.3482 18.6039 22.2732 18.6388 22.186C18.6736 22.0988 18.6822 22.0032 18.6634 21.9112L17.3385 15.2284L22.3337 10.6062C22.4039 10.5439 22.4542 10.4621 22.4786 10.3714C22.5031 10.2808 22.5004 10.1851 22.471 10.0959Z" fill="#FFB000"/>
</svg>
