<svg width="24" height="24" viewBox="0 0 24 24" fill="none" xmlns="http://www.w3.org/2000/svg">
<path  fill="currentColor" fill-rule="evenodd" clip-rule="evenodd" d="M3.43391 11.7031C4.14189 10.1784 6.49336 6.25 12 6.25C16.6229 6.25 19.3776 9.87279 20.4104 11.5756C20.5713 11.8408 20.5713 12.1592 20.4104 12.4244C19.3776 14.1272 16.6229 17.75 12 17.75C6.49337 17.75 4.14189 13.8216 3.43391 12.2969C3.34527 12.106 3.34527 11.894 3.43391 11.7031ZM12 4.75C5.60952 4.75 2.86901 9.35797 2.07342 11.0714C1.79877 11.6629 1.79877 12.3371 2.07342 12.9286C2.86901 14.642 5.60952 19.25 12 19.25C17.4663 19.25 20.61 14.9878 21.6929 13.2023C22.1438 12.4591 22.1438 11.5409 21.6929 10.7977C20.61 9.01223 17.4663 4.75 12 4.75ZM9.75003 12C9.75003 10.7574 10.7574 9.75 12 9.75C13.2427 9.75 14.25 10.7574 14.25 12C14.25 13.2426 13.2427 14.25 12 14.25C10.7574 14.25 9.75003 13.2426 9.75003 12ZM12 8.25C9.92896 8.25 8.25003 9.92893 8.25003 12C8.25003 14.0711 9.92896 15.75 12 15.75C14.0711 15.75 15.75 14.0711 15.75 12C15.75 9.92893 14.0711 8.25 12 8.25Z"/>
</svg>
