<svg width="24" height="25" viewBox="0 0 24 25" fill="none" xmlns="http://www.w3.org/2000/svg">
<path d="M12 3.2464L8.601 1.5L6.8278 5.01362L3.101 5.70061L3.6312 9.63984L1 12.4988L3.6312 15.3578L3.101 19.2971L6.8278 19.9841L8.601 23.5L12 21.7513L15.399 23.5L17.1722 19.9841L20.899 19.2971L20.3688 15.3578L23 12.4988L20.3688 9.63984L20.899 5.70061L17.1722 5.01362L15.399 1.5L12 3.2464Z" fill="#6CE68E"/>
<path d="M15.399 23.5L12 21.7513V3.2464L15.399 1.5L17.1722 5.01362L20.899 5.70061L20.3688 9.63984L23 12.4988L20.3688 15.3578L20.899 19.2971L17.1722 19.9841L15.399 23.5Z" fill="#62D281"/>
<path d="M7 12.6818L9.61215 15.6739C9.99925 16.1173 10.6837 16.1321 11.0896 15.7059L17 9.5" stroke="white" stroke-width="1.5" stroke-linecap="round"/>
</svg>
