<svg width="24" height="24" viewBox="0 0 24 24" fill="none" xmlns="http://www.w3.org/2000/svg">
<path d="M6 6.78982V18.084C6.00008 18.1085 6.00738 18.1325 6.02101 18.1528C6.03463 18.1732 6.05397 18.1891 6.07659 18.1985C6.09921 18.2079 6.12411 18.2105 6.14816 18.2058C6.17221 18.2011 6.19435 18.1895 6.2118 18.1723L12.0926 12.4372L6.2118 6.7016C6.19435 6.68439 6.17221 6.67273 6.14816 6.66805C6.12411 6.66338 6.09921 6.66592 6.07659 6.67534C6.05397 6.68476 6.03463 6.70065 6.02101 6.72102C6.00738 6.74139 6.00008 6.76532 6 6.78982Z" fill="#1A1E27"/>
<path d="M14.5575 10.0809L7.18381 6.01848L7.17921 6.01589C7.05219 5.94692 6.93149 6.11878 7.03552 6.21879L12.8157 11.7458L14.5575 10.0809Z" fill="#1A1E27"/>
<path d="M7.03586 18.6562C6.93125 18.7562 7.05195 18.9281 7.17955 18.8591L7.18415 18.8565L14.5573 14.7941L12.8155 13.1287L7.03586 18.6562Z" fill="#1A1E27"/>
<path d="M17.5343 11.7195L15.4752 10.5854L13.5391 12.4379L15.4752 14.2895L17.5343 13.1564C18.0944 12.8469 18.0944 12.029 17.5343 11.7195Z" fill="#1A1E27"/>
</svg>
