<svg width="24" height="24" viewBox="0 0 24 24" fill="none" xmlns="http://www.w3.org/2000/svg">
<path fill-rule="evenodd" clip-rule="evenodd" d="M3 3.75C3 3.33579 3.33579 3 3.75 3H19.25C19.6642 3 20 3.33579 20 3.75C20 4.16421 19.6642 4.5 19.25 4.5H4.5V20H19.25C19.6642 20 20 20.3358 20 20.75C20 21.1642 19.6642 21.5 19.25 21.5H3.75C3.33579 21.5 3 21.1642 3 20.75V3.75Z" fill="#1A1E27"/>
<path fill-rule="evenodd" clip-rule="evenodd" d="M17.6213 7.12132L22.3943 11.8943C22.6872 12.1872 22.6872 12.6621 22.3943 12.955L17.6213 17.7279C17.3284 18.0208 16.8536 18.0208 16.5607 17.7279C16.2678 17.435 16.2678 16.9602 16.5607 16.6673L20.0533 13.1746L9.13604 13.1746C8.72183 13.1746 8.38604 12.8388 8.38604 12.4246C8.38604 12.0104 8.72183 11.6746 9.13604 11.6746L20.0533 11.6746L16.5607 8.18198C16.2678 7.88909 16.2678 7.41421 16.5607 7.12132C16.8536 6.82843 17.3284 6.82843 17.6213 7.12132Z" fill="#1A1E27"/>
</svg>
