<svg width="24" height="25" viewBox="0 0 24 25" fill="none" xmlns="http://www.w3.org/2000/svg">
<path d="M11.9945 2.50001C10.9443 2.49854 9.904 2.70428 8.9334 3.10552C7.96281 3.50676 7.08098 4.09555 6.33833 4.83819C5.59568 5.58084 5.0069 6.46267 4.60566 7.43327C4.20442 8.40386 3.99854 9.44414 4.00001 10.4944C4.04177 11.7163 4.34342 12.9154 4.88483 14.0117C5.42624 15.1079 6.19505 16.0762 7.13997 16.8521C7.35137 17.1011 7.51052 17.3902 7.60807 17.702C7.70562 18.0137 7.73958 18.3418 7.70783 18.667H11.9945" fill="#F7CC4D"/>
<path d="M11.9937 22.319H9.59982C9.14002 22.3562 8.68398 22.2114 8.32994 21.9157C7.9759 21.62 7.75224 21.1969 7.70703 20.7378V18.8896C7.70983 18.8574 7.71897 18.826 7.73394 18.7973C7.74891 18.7687 7.76931 18.7433 7.79415 18.7226C7.819 18.7019 7.8478 18.6863 7.87869 18.6768C7.90959 18.6672 7.94205 18.6638 7.97424 18.6669H12.0049" fill="#AEB5BE"/>
<path d="M11.9937 20.0366H7.70703V18.667H11.9937" fill="#737B84"/>
<path d="M11.9961 2.50001C13.0469 2.49854 14.0876 2.70414 15.0589 3.10525C16.0301 3.50635 16.9127 4.09501 17.6562 4.83752C18.3998 5.58002 18.9896 6.46179 19.392 7.43245C19.7945 8.40311 20.0016 9.44361 20.0016 10.4944C19.957 11.7158 19.6542 12.9139 19.113 14.0098C18.5718 15.1056 17.8046 16.0743 16.8618 16.8521C16.6482 17.0997 16.4876 17.3886 16.3899 17.7007C16.2922 18.0129 16.2596 18.3417 16.2939 18.667H11.9961" fill="#F7B03E"/>
<path d="M11.9961 22.319H14.39C14.8504 22.3592 15.308 22.2154 15.6627 21.9191C16.0175 21.6228 16.2404 21.1981 16.2828 20.7378V18.8896C16.28 18.8574 16.2709 18.826 16.2559 18.7973C16.2409 18.7687 16.2204 18.7433 16.1955 18.7226C16.1707 18.7019 16.142 18.6863 16.1111 18.6768C16.0802 18.6672 16.0478 18.6638 16.0156 18.6669H11.9961" fill="#737B84"/>
<path d="M11.9961 20.0366H16.2939V18.667H11.9961" fill="#525B63"/>
<path d="M6.09375 9.55903C6.31315 8.53821 6.77886 7.58656 7.45034 6.78699C8.12183 5.98742 8.97879 5.3642 9.94633 4.97168" stroke="white" stroke-width="1.5" stroke-miterlimit="10" stroke-linecap="round"/>
</svg>
