<svg width="32" height="32" viewBox="0 0 32 32" fill="none" xmlns="http://www.w3.org/2000/svg">
<path d="M32 16C32 24.832 24.84 32 16 32C7.16 32 0 24.832 0 16C0 7.16 7.16 0 16 0C24.84 0 32 7.16 32 16Z" fill="#C4CAD4"/>
<path d="M9.6875 9.09121V22.9076C9.68759 22.9376 9.69653 22.9669 9.7132 22.9918C9.72987 23.0167 9.75352 23.0361 9.78119 23.0477C9.80886 23.0592 9.83932 23.0623 9.86875 23.0566C9.89817 23.0509 9.92526 23.0366 9.9466 23.0155L17.1406 15.9998L9.9466 8.98328C9.92526 8.96223 9.89817 8.94796 9.86875 8.94224C9.83932 8.93653 9.80886 8.93963 9.78119 8.95116C9.75352 8.96268 9.72987 8.98212 9.7132 9.00704C9.69653 9.03195 9.68759 9.06123 9.6875 9.09121Z" fill="#F5F5F7"/>
<path d="M20.1563 13.1173L11.1359 8.1476L11.1303 8.14444C10.9749 8.06007 10.8272 8.2703 10.9545 8.39264L18.0255 15.1539L20.1563 13.1173Z" fill="#F5F5F7"/>
<path d="M10.9568 23.6077C10.8289 23.73 10.9765 23.9402 11.1326 23.8559L11.1383 23.8527L20.1579 18.883L18.0271 16.8457L10.9568 23.6077Z" fill="#F5F5F7"/>
<path d="M23.7976 15.1212L21.2786 13.7339L18.9102 16.0001L21.2786 18.2652L23.7976 16.879C24.4828 16.5003 24.4828 15.4998 23.7976 15.1212Z" fill="#F5F5F7"/>
</svg>
