<svg width="24" height="24" viewBox="0 0 24 24" fill="none" xmlns="http://www.w3.org/2000/svg">
<path d="M18.9079 22.436H5.3408C4.29179 22.436 3.44141 21.5856 3.44141 20.5366C3.44141 19.4876 4.29179 18.6372 5.3408 18.6372H18.9079C19.9569 18.6372 20.8073 19.4876 20.8073 20.5366C20.8073 21.5856 19.9569 22.436 18.9079 22.436Z" stroke="black" stroke-width="1.5" stroke-linecap="round" stroke-linejoin="round"/>
<path d="M12.125 1V3.17073" stroke="#231815" stroke-width="1.5" stroke-miterlimit="10" stroke-linecap="round"/>
<path d="M23.2489 10.7683H21.0781" stroke="#231815" stroke-width="1.5" stroke-miterlimit="10" stroke-linecap="round"/>
<path d="M3.17073 10.7683H1" stroke="#231815" stroke-width="1.5" stroke-miterlimit="10" stroke-linecap="round"/>
<path d="M5.83809 5.02682L4.29688 3.4856" stroke="#231815" stroke-width="1.5" stroke-miterlimit="10" stroke-linecap="round"/>
<path d="M18.4102 5.02682L19.9514 3.4856" stroke="#231815" stroke-width="1.5" stroke-miterlimit="10" stroke-linecap="round"/>
<path d="M6.15625 12.6678C6.15625 9.37088 8.82889 6.69824 12.1258 6.69824V6.69824C15.4226 6.69824 18.0953 9.37088 18.0953 12.6678V18.6373H6.15625V12.6678Z" stroke="black" stroke-width="1.5" stroke-linejoin="round"/>
</svg>
