<svg width="36" height="36" viewBox="0 0 36 36" fill="none" xmlns="http://www.w3.org/2000/svg">
<path d="M6 30.0002H4.87276C4.87276 30.6228 5.37745 31.1275 6 31.1275V30.0002ZM30 30.0002V31.1275C30.6226 31.1275 31.1272 30.6228 31.1272 30.0002H30ZM31.1272 23.0772C31.1272 22.4546 30.6226 21.9499 30 21.9499C29.3774 21.9499 28.8728 22.4546 28.8728 23.0772H31.1272ZM6 6.00024V4.87301C5.37745 4.87301 4.87276 5.37769 4.87276 6.00024H6ZM12.75 7.12748C13.3726 7.12748 13.8772 6.6228 13.8772 6.00024C13.8772 5.37769 13.3726 4.87301 12.75 4.87301V7.12748ZM4.87276 17.0772V30.0002H7.12724V17.0772H4.87276ZM6 31.1275H30V28.873H6V31.1275ZM31.1272 30.0002V23.0772H28.8728V30.0002H31.1272ZM7.12724 17.0772V6.00024H4.87276V17.0772H7.12724ZM6 7.12748H12.75V4.87301H6V7.12748Z" fill="#D8DCE2"/>
<path d="M15.7029 18.7032C15.2627 19.1434 15.2627 19.8571 15.7029 20.2973C16.1431 20.7375 16.8569 20.7375 17.2971 20.2973L15.7029 18.7032ZM31.1272 6.00024C31.1272 5.37769 30.6226 4.87301 30 4.87301H19.8549C19.2323 4.87301 18.7276 5.37769 18.7276 6.00024C18.7276 6.6228 19.2323 7.12748 19.8549 7.12748H28.8728V16.1454C28.8728 16.7679 29.3774 17.2726 30 17.2726C30.6226 17.2726 31.1272 16.7679 31.1272 16.1454V6.00024ZM17.2971 20.2973L30.7971 6.79732L29.2029 5.20317L15.7029 18.7032L17.2971 20.2973Z" fill="#D8DCE2"/>
</svg>
