<svg width="24" height="25" viewBox="0 0 24 25" fill="none" xmlns="http://www.w3.org/2000/svg">
<path d="M2.48828 19.0359C2.70958 19.3359 2.99488 19.5789 3.32193 19.7461C3.64898 19.9133 4.00894 20.0002 4.37377 19.9999H19.6265C20.2559 19.9999 20.8596 19.7412 21.3047 19.2809C21.7497 18.8206 21.9998 18.1963 21.9998 17.5453V8.21153C21.9998 8.09467 21.9917 7.97796 21.9756 7.8623L2.48828 19.0359Z" fill="#FFB000"/>
<path d="M2.01938 7.90186C2.00661 8.00462 2.00014 8.10811 2 8.21171V17.5455C1.9994 18.0844 2.17088 18.6084 2.48781 19.0361L11.9602 13.6032L2.01938 7.90186Z" fill="#FFB000"/>
<path d="M19.626 5H4.37329C4.00842 4.99983 3.64844 5.08039 3.3214 5.23539C2.99435 5.39038 2.70907 5.61564 2.48781 5.89359C2.17065 6.28969 1.99914 6.77517 2 7.2744V8.6287C2.00016 8.72467 2.00664 8.82054 2.01938 8.91573L10.2007 13.5368C10.735 13.8384 11.3435 13.9982 11.9637 14C12.5838 14.0017 13.1933 13.8453 13.7295 13.5467L21.9737 8.95153C21.9898 8.84461 21.9979 8.73673 21.9979 8.6287V7.2744C21.9979 6.67154 21.7481 6.09334 21.3033 5.66686C20.8586 5.24039 20.2553 5.00053 19.626 5Z" fill="#FFD573"/>
</svg>
