<svg width="24" height="25" viewBox="0 0 24 25" fill="none" xmlns="http://www.w3.org/2000/svg">
<path d="M11.4432 1.3258C9.63168 3.87813 4 12.1183 4 15.867C4 18.013 4.84286 20.0711 6.34315 21.5885C7.84344 23.1059 9.87827 23.9584 12 23.9584V1.04179C11.8915 1.04062 11.7843 1.0658 11.6874 1.11522C11.5905 1.16465 11.5068 1.23686 11.4432 1.3258Z" fill="#FF5858"/>
<path d="M12.5543 1.32957C12.4914 1.2403 12.4082 1.16758 12.3118 1.1175C12.2153 1.06743 12.1084 1.04145 12 1.04175V23.9584C14.122 23.9577 16.1568 23.1049 17.657 21.5875C19.1572 20.0702 20 18.0125 20 15.867C20 12.1221 14.3664 3.88298 12.5543 1.32957Z" fill="#DD3A3A"/>
</svg>
