<svg width="157" height="59" viewBox="0 0 157 59" fill="none" xmlns="http://www.w3.org/2000/svg">
<g clip-path="url(#clip0_1746_17163)">
<path d="M48.2602 15.4153C44.9457 15.4153 41.7057 16.378 38.9498 18.1816C36.1939 19.9852 34.046 22.5487 32.7776 25.548C31.5092 28.5473 31.1774 31.8477 31.824 35.0317C32.4706 38.2158 34.0666 41.1405 36.4103 43.4361C38.754 45.7316 41.74 47.2949 44.9908 47.9283C48.2416 48.5616 51.6111 48.2366 54.6732 46.9942C57.7354 45.7519 60.3527 43.648 62.1941 40.9487C64.0355 38.2494 65.0184 35.0759 65.0184 31.8295C65.0184 27.4762 63.2528 23.3011 60.11 20.2229C56.9672 17.1446 52.7047 15.4153 48.2602 15.4153V15.4153ZM53.4165 40.564C51.0668 41.8906 46.8895 39.0536 44.0176 34.2269C41.1457 29.4001 40.7541 24.4135 43.112 23.087C45.4698 21.7604 49.639 24.5973 52.5109 29.4241C55.3828 34.2508 55.7581 39.2374 53.4165 40.564Z" fill="#1A1E27"/>
<path d="M84.6648 15.4153C81.35 15.4137 78.1092 16.375 75.3522 18.1777C72.5953 19.9803 70.4461 22.5433 69.1764 25.5425C67.9068 28.5417 67.5738 31.8423 68.2195 35.0268C68.8651 38.2114 70.4606 41.1369 72.8039 43.4332C75.1473 45.7296 78.1333 47.2937 81.3843 47.9277C84.6353 48.5617 88.0052 48.2371 91.0678 46.995C94.1305 45.7529 96.7482 43.649 98.59 40.9495C100.432 38.2501 101.415 35.0762 101.415 31.8295C101.415 27.4775 99.6504 23.3037 96.5094 20.2257C93.3684 17.1477 89.1079 15.4174 84.6648 15.4153V15.4153ZM89.813 40.564C87.4714 41.8906 83.2859 39.0536 80.4222 34.2269C77.5585 29.4001 77.1587 24.4135 79.5166 23.087C81.8745 21.7604 86.0436 24.5973 88.9155 29.4241C91.7874 34.2508 92.1954 39.2374 89.8456 40.564H89.813Z" fill="#1A1E27"/>
<path d="M157 12.914C151.182 11.1719 148.735 5.39415 151.533 0C148.735 5.39415 141.743 8.35094 135.934 6.61682C141.751 8.35094 144.198 14.1367 141.392 19.5228C144.198 14.1367 151.182 11.1719 157 12.914Z" fill="#FF3E3D"/>
<path d="M143.27 21.7924V46.3577H154.529V15.671C152.289 15.7337 150.097 16.3224 148.137 17.3877C146.178 18.4529 144.509 19.9635 143.27 21.7924V21.7924Z" fill="#1A1E27"/>
<path d="M28.1071 17.2053H0C1.27285 20.7756 1.27285 24.663 0 28.2334H28.1071V17.2053Z" fill="#1A1E27"/>
<path d="M0 46.3578H28.1071C26.8342 42.7875 26.8342 38.9 28.1071 35.3297H0V46.3578Z" fill="#1A1E27"/>
<path d="M25.0218 22.4387L-0.00585938 35.2979L3.07544 41.0513L28.1031 28.1921L25.0218 22.4387Z" fill="#1A1E27"/>
<path fill-rule="evenodd" clip-rule="evenodd" d="M123.272 15.4153C120.775 15.4153 118.409 16.2048 116.288 17.3451V15.5112C114.494 16.1884 112.581 16.509 110.659 16.4541C108.737 16.509 106.823 16.1884 105.029 15.5112V59.008C108.673 57.7504 112.645 57.7504 116.288 59.008V45.7944C118.409 46.9347 120.775 47.7242 123.272 47.7242C127.583 47.6303 131.685 45.8871 134.7 42.8678C137.715 39.8485 139.403 35.793 139.403 31.5698C139.403 27.3465 137.715 23.2911 134.7 20.2718C131.685 17.2524 127.583 15.5092 123.272 15.4153ZM127.46 29.2009C130.261 33.9519 130.658 38.8624 128.348 40.1688C126.038 41.4752 121.895 38.6828 119.094 33.9318C116.294 29.1808 115.896 24.2703 118.207 22.964C120.517 21.6576 124.66 24.45 127.46 29.2009Z" fill="#1A1E27"/>
</g>
<defs>
<clipPath id="clip0_1746_17163">
<rect width="157" height="59" fill="white"/>
</clipPath>
</defs>
</svg>
